<svg width="16" height="16" viewBox="0 0 16 16" fill="none" xmlns="http://www.w3.org/2000/svg">
  <path
    d="M8.47324 11.8067L11.8066 8.47338C11.8673 8.40997 11.9148 8.33521 11.9466 8.25338C12.0133 8.09107 12.0133 7.90902 11.9466 7.74671C11.9148 7.66488 11.8673 7.59011 11.8066 7.52671L8.47324 4.19338C8.41108 4.13122 8.33729 4.08191 8.25607 4.04827C8.17486 4.01463 8.08781 3.99731 7.99991 3.99731C7.82237 3.99731 7.65211 4.06784 7.52657 4.19338C7.40104 4.31891 7.33051 4.48918 7.33051 4.66671C7.33051 4.84424 7.40104 5.01451 7.52657 5.14004L9.72657 7.33338L4.66657 7.33338C4.48976 7.33338 4.32019 7.40361 4.19517 7.52864C4.07014 7.65366 3.99991 7.82323 3.99991 8.00004C3.99991 8.17685 4.07014 8.34642 4.19517 8.47145C4.32019 8.59647 4.48976 8.66671 4.66657 8.66671L9.72657 8.66671L7.52657 10.86C7.46409 10.922 7.41449 10.9958 7.38065 11.077C7.3468 11.1582 7.32937 11.2454 7.32937 11.3334C7.32937 11.4214 7.3468 11.5085 7.38065 11.5898C7.41449 11.671 7.46409 11.7447 7.52657 11.8067C7.58855 11.8692 7.66228 11.9188 7.74352 11.9526C7.82476 11.9865 7.9119 12.0039 7.99991 12.0039C8.08791 12.0039 8.17505 11.9865 8.25629 11.9526C8.33753 11.9188 8.41126 11.8692 8.47324 11.8067Z"
    fill="#202120" />
</svg>