<svg width="40" height="40" viewBox="0 0 40 40" fill="none" xmlns="http://www.w3.org/2000/svg">
  <path fill-rule="evenodd" clip-rule="evenodd"
    d="M26.5667 4.9812C28.7685 4.9812 30.8802 5.85588 32.4371 7.41283C33.9941 8.96977 34.8687 11.0814 34.8687 13.2833V26.5667C34.8687 28.7685 33.9941 30.8802 32.4371 32.4371C30.8802 33.9941 28.7685 34.8687 26.5667 34.8687H13.2833C11.0814 34.8687 8.96977 33.9941 7.41283 32.4371C5.85588 30.8802 4.9812 28.7685 4.9812 26.5667V13.2833C4.9812 11.0814 5.85588 8.96977 7.41283 7.41283C8.96977 5.85588 11.0814 4.9812 13.2833 4.9812H26.5667ZM26.5667 8.30204H13.2833C11.9622 8.30204 10.6952 8.82685 9.76102 9.76102C8.82685 10.6952 8.30204 11.9622 8.30204 13.2833V26.5667C8.30204 27.8878 8.82685 29.1548 9.76102 30.0889C10.6952 31.0231 11.9622 31.5479 13.2833 31.5479H26.5667C27.8878 31.5479 29.1548 31.0231 30.0889 30.0889C31.0231 29.1548 31.5479 27.8878 31.5479 26.5667V13.2833C31.5479 11.9622 31.0231 10.6952 30.0889 9.76102C29.1548 8.82685 27.8878 8.30204 26.5667 8.30204ZM19.925 13.2833C21.6865 13.2833 23.3758 13.983 24.6213 15.2286C25.8669 16.4742 26.5667 18.1635 26.5667 19.925C26.5667 21.6865 25.8669 23.3758 24.6213 24.6213C23.3758 25.8669 21.6865 26.5667 19.925 26.5667C18.1635 26.5667 16.4742 25.8669 15.2286 24.6213C13.983 23.3758 13.2833 21.6865 13.2833 19.925C13.2833 18.1635 13.983 16.4742 15.2286 15.2286C16.4742 13.983 18.1635 13.2833 19.925 13.2833ZM19.925 16.6041C19.0442 16.6041 18.1996 16.954 17.5768 17.5768C16.954 18.1996 16.6041 19.0442 16.6041 19.925C16.6041 20.8057 16.954 21.6504 17.5768 22.2732C18.1996 22.8959 19.0442 23.2458 19.925 23.2458C20.8057 23.2458 21.6504 22.8959 22.2732 22.2732C22.8959 21.6504 23.2458 20.8057 23.2458 19.925C23.2458 19.0442 22.8959 18.1996 22.2732 17.5768C21.6504 16.954 20.8057 16.6041 19.925 16.6041ZM27.3969 10.7927C27.8372 10.7927 28.2596 10.9676 28.571 11.279C28.8823 11.5904 29.0573 12.0127 29.0573 12.4531C29.0573 12.8935 28.8823 13.3158 28.571 13.6272C28.2596 13.9386 27.8372 14.1135 27.3969 14.1135C26.9565 14.1135 26.5342 13.9386 26.2228 13.6272C25.9114 13.3158 25.7364 12.8935 25.7364 12.4531C25.7364 12.0127 25.9114 11.5904 26.2228 11.279C26.5342 10.9676 26.9565 10.7927 27.3969 10.7927Z"
    fill="#202120" />
</svg>